<svg version="1.1" width="460" height="440" xmlns="http://www.w3.org/2000/svg">
<style> text { font-family: "Arial"; }</style><rect width="260" height="120" x="50" y="0" fill="#eee" />
<text x="14" y="9" font-size="10px">0-1</text>
<text x="14" y="19" font-size="10px">0-2</text>
<text x="14" y="29" font-size="10px">1-3</text>
<text x="14" y="39" font-size="10px">1-0</text>
<text x="14" y="49" font-size="10px">2-3</text>
<text x="14" y="59" font-size="10px">3-1</text>
<text x="14" y="69" font-size="10px">L-0</text>
<text x="14" y="79" font-size="10px">1-L</text>
<text x="14" y="89" font-size="10px">L-1</text>
<text x="14" y="99" font-size="10px">2-L</text>
<text x="14" y="109" font-size="10px">L-2</text>
<text x="14" y="119" font-size="10px">3-L</text>
<text x="10" transform="rotate(90,3,0)" y="0" font-size="10px">links</text>
<rect width="90" height="10" x="50" y="0" fill="#d298b0" />
<text width="90" height="10" x="50" y="8" font-size="10px">f1:0</text>
<rect width="160" height="10" x="150" y="0" fill="#d2daa7" />
<text width="160" height="10" x="150" y="8" font-size="10px">f2:0</text>
<rect width="115" height="10" x="50" y="10" fill="#9899a9" />
<text width="115" height="10" x="50" y="18" font-size="10px">f5:0</text>
<rect width="160" height="10" x="150" y="20" fill="#d2daa7" />
<text width="160" height="10" x="150" y="28" font-size="10px">f2:0</text>
<rect width="115" height="10" x="50" y="30" fill="#9899a9" />
<text width="115" height="10" x="50" y="38" font-size="10px">f5:0</text>
<rect width="95" height="10" x="50" y="40" fill="#a5d8ce" />
<text width="95" height="10" x="50" y="48" font-size="10px">f3:0</text>
<rect width="135" height="10" x="150" y="40" fill="#cfc2db" />
<text width="135" height="10" x="150" y="48" font-size="10px">f4:0</text>
<rect width="135" height="10" x="150" y="50" fill="#cfc2db" />
<text width="135" height="10" x="150" y="58" font-size="10px">f4:0</text>
<rect width="90" height="10" x="50" y="60" fill="#d298b0" />
<text width="90" height="10" x="50" y="68" font-size="10px">f1:0</text>
<rect width="160" height="10" x="150" y="60" fill="#d2daa7" />
<text width="160" height="10" x="150" y="68" font-size="10px">f2:0</text>
<rect width="90" height="10" x="50" y="70" fill="#d298b0" />
<text width="90" height="10" x="50" y="78" font-size="10px">f1:0</text>
<rect width="135" height="10" x="150" y="70" fill="#cfc2db" />
<text width="135" height="10" x="150" y="78" font-size="10px">f4:0</text>
<rect width="115" height="10" x="50" y="80" fill="#9899a9" />
<text width="115" height="10" x="50" y="88" font-size="10px">f5:0</text>
<rect width="115" height="10" x="50" y="90" fill="#9899a9" />
<text width="115" height="10" x="50" y="98" font-size="10px">f5:0</text>
<rect width="95" height="10" x="50" y="100" fill="#a5d8ce" />
<text width="95" height="10" x="50" y="108" font-size="10px">f3:0</text>
<rect width="135" height="10" x="150" y="100" fill="#cfc2db" />
<text width="135" height="10" x="150" y="108" font-size="10px">f4:0</text>
<rect width="160" height="10" x="150" y="110" fill="#d2daa7" />
<text width="160" height="10" x="150" y="118" font-size="10px">f2:0</text>
<rect width="95" height="10" x="50" y="110" fill="#a5d8ce" />
<text width="95" height="10" x="50" y="118" font-size="10px">f3:0</text>
<text x="54" y="170" font-size="10px">time (cycles)</text>
<rect width="1" height="20" x="50" y="130" fill="#666" />
<text x="53" y="150" font-size="10px">0</text>
<rect width="1" height="20" x="150" y="130" fill="#666" />
<text x="153" y="150" font-size="10px">20</text>
<rect width="1" height="20" x="250" y="130" fill="#666" />
<text x="253" y="150" font-size="10px">40</text>
<rect width="1" height="20" x="310" y="130" fill="blue" />
<text x="312" y="150" fill="blue" font-size="10px">52</text>
</svg>
