<svg version="1.1" width="830.0" height="380" xmlns="http://www.w3.org/2000/svg">
<style> text { font-family: "Arial"; }</style><rect width="630.0" height="90" x="50" y="0" fill="#eee" />
<text x="14" y="9" font-size="10px">0-1</text>
<text x="14" y="19" font-size="10px">1-3</text>
<text x="14" y="29" font-size="10px">3-2</text>
<text x="14" y="39" font-size="10px">L-0</text>
<text x="14" y="49" font-size="10px">1-L</text>
<text x="14" y="59" font-size="10px">L-1</text>
<text x="14" y="69" font-size="10px">2-L</text>
<text x="14" y="79" font-size="10px">3-L</text>
<text x="14" y="89" font-size="10px">L-3</text>
<text x="10" transform="rotate(90,3,0)" y="0" font-size="10px">links</text>
<rect width="4.15" height="10" x="50.0" y="0" fill="#b5a5bb" />
<text width="4.15" height="10" x="50.0" y="8" font-size="10px">f1:0</text>
<rect width="2.71" height="10" x="50.0" y="10" fill="#bec99d" />
<text width="2.71" height="10" x="50.0" y="18" font-size="10px">f2:0</text>
<rect width="2.71" height="10" x="50.0" y="20" fill="#acc1be" />
<text width="2.71" height="10" x="50.0" y="28" font-size="10px">f3:0</text>
<rect width="4.15" height="10" x="50.0" y="30" fill="#b5a5bb" />
<text width="4.15" height="10" x="50.0" y="38" font-size="10px">f1:0</text>
<rect width="4.15" height="10" x="50.0" y="40" fill="#b5a5bb" />
<text width="4.15" height="10" x="50.0" y="48" font-size="10px">f1:0</text>
<rect width="2.71" height="10" x="50.0" y="50" fill="#bec99d" />
<text width="2.71" height="10" x="50.0" y="58" font-size="10px">f2:0</text>
<rect width="2.71" height="10" x="50.0" y="60" fill="#acc1be" />
<text width="2.71" height="10" x="50.0" y="68" font-size="10px">f3:0</text>
<rect width="2.71" height="10" x="50.0" y="70" fill="#bec99d" />
<text width="2.71" height="10" x="50.0" y="78" font-size="10px">f2:0</text>
<rect width="2.71" height="10" x="50.0" y="80" fill="#acc1be" />
<text width="2.71" height="10" x="50.0" y="88" font-size="10px">f3:0</text>
<text x="52" y="140" font-size="10px">time (cycles)</text>
<rect width="1" height="20" x="50.0" y="100" fill="#666" />
<text x="53.0" y="120" font-size="10px">0</text>
<rect width="1" height="20" x="150.0" y="100" fill="#666" />
<text x="153.0" y="120" font-size="10px">10000</text>
<rect width="1" height="20" x="250.0" y="100" fill="#666" />
<text x="253.0" y="120" font-size="10px">20000</text>
<rect width="1" height="20" x="350.0" y="100" fill="#666" />
<text x="353.0" y="120" font-size="10px">30000</text>
<rect width="1" height="20" x="450.0" y="100" fill="#666" />
<text x="453.0" y="120" font-size="10px">40000</text>
<rect width="1" height="20" x="550.0" y="100" fill="#666" />
<text x="553.0" y="120" font-size="10px">50000</text>
<rect width="1" height="20" x="650.0" y="100" fill="#666" />
<text x="653.0" y="120" font-size="10px">60000</text>
<rect width="1" height="20" x="680.0" y="100" fill="blue" />
<text x="682.0" y="120" fill="blue" font-size="10px">63000</text>
</svg>
