<svg version="1.1" width="25200.0" height="400" xmlns="http://www.w3.org/2000/svg">
<style> text { font-family: "Arial"; }</style><rect width="25000.0" height="100" x="50" y="0" fill="#eee" />
<text x="14" y="9" font-size="10px">0-1</text>
<text x="14" y="19" font-size="10px">0-2</text>
<text x="14" y="29" font-size="10px">1-3</text>
<text x="14" y="39" font-size="10px">3-2</text>
<text x="14" y="49" font-size="10px">L-0</text>
<text x="14" y="59" font-size="10px">1-L</text>
<text x="14" y="69" font-size="10px">L-1</text>
<text x="14" y="79" font-size="10px">2-L</text>
<text x="14" y="89" font-size="10px">3-L</text>
<text x="14" y="99" font-size="10px">L-3</text>
<text x="10" transform="rotate(90,3,0)" y="0" font-size="10px">links</text>
<rect width="32.300000000000004" height="10" x="173.0" y="0" fill="#c7cdcc" />
<text width="32.300000000000004" height="10" x="173.0" y="8" font-size="10px">f2:0</text>
<rect width="171.0" height="10" x="728.0" y="10" fill="#c5b5ac" />
<text width="171.0" height="10" x="728.0" y="18" font-size="10px">f11:0</text>
<rect width="31.5" height="10" x="839.0" y="20" fill="#97c4c4" />
<text width="31.5" height="10" x="839.0" y="28" font-size="10px">f5:0</text>
<rect width="143.3" height="10" x="899.1" y="30" fill="#ccaace" />
<text width="143.3" height="10" x="899.1" y="38" font-size="10px">f10:0</text>
<rect width="224.0" height="10" x="284.0" y="30" fill="#989dd8" />
<text width="224.0" height="10" x="284.0" y="38" font-size="10px">f8:0</text>
<rect width="171.0" height="10" x="728.0" y="40" fill="#c5b5ac" />
<text width="171.0" height="10" x="728.0" y="48" font-size="10px">f11:0</text>
<rect width="32.300000000000004" height="10" x="173.0" y="40" fill="#c7cdcc" />
<text width="32.300000000000004" height="10" x="173.0" y="48" font-size="10px">f2:0</text>
<rect width="32.300000000000004" height="10" x="173.0" y="50" fill="#c7cdcc" />
<text width="32.300000000000004" height="10" x="173.0" y="58" font-size="10px">f2:0</text>
<rect width="31.5" height="10" x="839.0" y="60" fill="#97c4c4" />
<text width="31.5" height="10" x="839.0" y="68" font-size="10px">f5:0</text>
<rect width="143.3" height="10" x="899.1" y="70" fill="#ccaace" />
<text width="143.3" height="10" x="899.1" y="78" font-size="10px">f10:0</text>
<rect width="171.0" height="10" x="728.0" y="70" fill="#c5b5ac" />
<text width="171.0" height="10" x="728.0" y="78" font-size="10px">f11:0</text>
<rect width="224.0" height="10" x="284.0" y="70" fill="#989dd8" />
<text width="224.0" height="10" x="284.0" y="78" font-size="10px">f8:0</text>
<rect width="31.5" height="10" x="839.0" y="80" fill="#97c4c4" />
<text width="31.5" height="10" x="839.0" y="88" font-size="10px">f5:0</text>
<rect width="143.3" height="10" x="899.1" y="90" fill="#ccaace" />
<text width="143.3" height="10" x="899.1" y="98" font-size="10px">f10:0</text>
<rect width="224.0" height="10" x="284.0" y="90" fill="#989dd8" />
<text width="224.0" height="10" x="284.0" y="98" font-size="10px">f8:0</text>
<text x="54" y="150" font-size="10px">time (cycles)</text>
<rect width="1" height="20" x="50.0" y="110" fill="#666" />
<text x="53.0" y="130" font-size="10px">0</text>
<rect width="1" height="20" x="150.0" y="110" fill="#666" />
<text x="153.0" y="130" font-size="10px">1000</text>
<rect width="1" height="20" x="250.0" y="110" fill="#666" />
<text x="253.0" y="130" font-size="10px">2000</text>
<rect width="1" height="20" x="350.0" y="110" fill="#666" />
<text x="353.0" y="130" font-size="10px">3000</text>
<rect width="1" height="20" x="450.0" y="110" fill="#666" />
<text x="453.0" y="130" font-size="10px">4000</text>
<rect width="1" height="20" x="550.0" y="110" fill="#666" />
<text x="553.0" y="130" font-size="10px">5000</text>
<rect width="1" height="20" x="650.0" y="110" fill="#666" />
<text x="653.0" y="130" font-size="10px">6000</text>
<rect width="1" height="20" x="750.0" y="110" fill="#666" />
<text x="753.0" y="130" font-size="10px">7000</text>
<rect width="1" height="20" x="850.0" y="110" fill="#666" />
<text x="853.0" y="130" font-size="10px">8000</text>
<rect width="1" height="20" x="950.0" y="110" fill="#666" />
<text x="953.0" y="130" font-size="10px">9000</text>
<rect width="1" height="20" x="1050.0" y="110" fill="#666" />
<text x="1053.0" y="130" font-size="10px">10000</text>
<rect width="1" height="20" x="1150.0" y="110" fill="#666" />
<text x="1153.0" y="130" font-size="10px">11000</text>
<rect width="1" height="20" x="1250.0" y="110" fill="#666" />
<text x="1253.0" y="130" font-size="10px">12000</text>
<rect width="1" height="20" x="1350.0" y="110" fill="#666" />
<text x="1353.0" y="130" font-size="10px">13000</text>
<rect width="1" height="20" x="1450.0" y="110" fill="#666" />
<text x="1453.0" y="130" font-size="10px">14000</text>
<rect width="1" height="20" x="1550.0" y="110" fill="#666" />
<text x="1553.0" y="130" font-size="10px">15000</text>
<rect width="1" height="20" x="1650.0" y="110" fill="#666" />
<text x="1653.0" y="130" font-size="10px">16000</text>
<rect width="1" height="20" x="1750.0" y="110" fill="#666" />
<text x="1753.0" y="130" font-size="10px">17000</text>
<rect width="1" height="20" x="1850.0" y="110" fill="#666" />
<text x="1853.0" y="130" font-size="10px">18000</text>
<rect width="1" height="20" x="1950.0" y="110" fill="#666" />
<text x="1953.0" y="130" font-size="10px">19000</text>
<rect width="1" height="20" x="2050.0" y="110" fill="#666" />
<text x="2053.0" y="130" font-size="10px">20000</text>
<rect width="1" height="20" x="2150.0" y="110" fill="#666" />
<text x="2153.0" y="130" font-size="10px">21000</text>
<rect width="1" height="20" x="2250.0" y="110" fill="#666" />
<text x="2253.0" y="130" font-size="10px">22000</text>
<rect width="1" height="20" x="2350.0" y="110" fill="#666" />
<text x="2353.0" y="130" font-size="10px">23000</text>
<rect width="1" height="20" x="2450.0" y="110" fill="#666" />
<text x="2453.0" y="130" font-size="10px">24000</text>
<rect width="1" height="20" x="2550.0" y="110" fill="#666" />
<text x="2553.0" y="130" font-size="10px">25000</text>
<rect width="1" height="20" x="2650.0" y="110" fill="#666" />
<text x="2653.0" y="130" font-size="10px">26000</text>
<rect width="1" height="20" x="2750.0" y="110" fill="#666" />
<text x="2753.0" y="130" font-size="10px">27000</text>
<rect width="1" height="20" x="2850.0" y="110" fill="#666" />
<text x="2853.0" y="130" font-size="10px">28000</text>
<rect width="1" height="20" x="2950.0" y="110" fill="#666" />
<text x="2953.0" y="130" font-size="10px">29000</text>
<rect width="1" height="20" x="3050.0" y="110" fill="#666" />
<text x="3053.0" y="130" font-size="10px">30000</text>
<rect width="1" height="20" x="3150.0" y="110" fill="#666" />
<text x="3153.0" y="130" font-size="10px">31000</text>
<rect width="1" height="20" x="3250.0" y="110" fill="#666" />
<text x="3253.0" y="130" font-size="10px">32000</text>
<rect width="1" height="20" x="3350.0" y="110" fill="#666" />
<text x="3353.0" y="130" font-size="10px">33000</text>
<rect width="1" height="20" x="3450.0" y="110" fill="#666" />
<text x="3453.0" y="130" font-size="10px">34000</text>
<rect width="1" height="20" x="3550.0" y="110" fill="#666" />
<text x="3553.0" y="130" font-size="10px">35000</text>
<rect width="1" height="20" x="3650.0" y="110" fill="#666" />
<text x="3653.0" y="130" font-size="10px">36000</text>
<rect width="1" height="20" x="3750.0" y="110" fill="#666" />
<text x="3753.0" y="130" font-size="10px">37000</text>
<rect width="1" height="20" x="3850.0" y="110" fill="#666" />
<text x="3853.0" y="130" font-size="10px">38000</text>
<rect width="1" height="20" x="3950.0" y="110" fill="#666" />
<text x="3953.0" y="130" font-size="10px">39000</text>
<rect width="1" height="20" x="4050.0" y="110" fill="#666" />
<text x="4053.0" y="130" font-size="10px">40000</text>
<rect width="1" height="20" x="4150.0" y="110" fill="#666" />
<text x="4153.0" y="130" font-size="10px">41000</text>
<rect width="1" height="20" x="4250.0" y="110" fill="#666" />
<text x="4253.0" y="130" font-size="10px">42000</text>
<rect width="1" height="20" x="4350.0" y="110" fill="#666" />
<text x="4353.0" y="130" font-size="10px">43000</text>
<rect width="1" height="20" x="4450.0" y="110" fill="#666" />
<text x="4453.0" y="130" font-size="10px">44000</text>
<rect width="1" height="20" x="4550.0" y="110" fill="#666" />
<text x="4553.0" y="130" font-size="10px">45000</text>
<rect width="1" height="20" x="4650.0" y="110" fill="#666" />
<text x="4653.0" y="130" font-size="10px">46000</text>
<rect width="1" height="20" x="4750.0" y="110" fill="#666" />
<text x="4753.0" y="130" font-size="10px">47000</text>
<rect width="1" height="20" x="4850.0" y="110" fill="#666" />
<text x="4853.0" y="130" font-size="10px">48000</text>
<rect width="1" height="20" x="4950.0" y="110" fill="#666" />
<text x="4953.0" y="130" font-size="10px">49000</text>
<rect width="1" height="20" x="5050.0" y="110" fill="#666" />
<text x="5053.0" y="130" font-size="10px">50000</text>
<rect width="1" height="20" x="5150.0" y="110" fill="#666" />
<text x="5153.0" y="130" font-size="10px">51000</text>
<rect width="1" height="20" x="5250.0" y="110" fill="#666" />
<text x="5253.0" y="130" font-size="10px">52000</text>
<rect width="1" height="20" x="5350.0" y="110" fill="#666" />
<text x="5353.0" y="130" font-size="10px">53000</text>
<rect width="1" height="20" x="5450.0" y="110" fill="#666" />
<text x="5453.0" y="130" font-size="10px">54000</text>
<rect width="1" height="20" x="5550.0" y="110" fill="#666" />
<text x="5553.0" y="130" font-size="10px">55000</text>
<rect width="1" height="20" x="5650.0" y="110" fill="#666" />
<text x="5653.0" y="130" font-size="10px">56000</text>
<rect width="1" height="20" x="5750.0" y="110" fill="#666" />
<text x="5753.0" y="130" font-size="10px">57000</text>
<rect width="1" height="20" x="5850.0" y="110" fill="#666" />
<text x="5853.0" y="130" font-size="10px">58000</text>
<rect width="1" height="20" x="5950.0" y="110" fill="#666" />
<text x="5953.0" y="130" font-size="10px">59000</text>
<rect width="1" height="20" x="6050.0" y="110" fill="#666" />
<text x="6053.0" y="130" font-size="10px">60000</text>
<rect width="1" height="20" x="6150.0" y="110" fill="#666" />
<text x="6153.0" y="130" font-size="10px">61000</text>
<rect width="1" height="20" x="6250.0" y="110" fill="#666" />
<text x="6253.0" y="130" font-size="10px">62000</text>
<rect width="1" height="20" x="6350.0" y="110" fill="#666" />
<text x="6353.0" y="130" font-size="10px">63000</text>
<rect width="1" height="20" x="6450.0" y="110" fill="#666" />
<text x="6453.0" y="130" font-size="10px">64000</text>
<rect width="1" height="20" x="6550.0" y="110" fill="#666" />
<text x="6553.0" y="130" font-size="10px">65000</text>
<rect width="1" height="20" x="6650.0" y="110" fill="#666" />
<text x="6653.0" y="130" font-size="10px">66000</text>
<rect width="1" height="20" x="6750.0" y="110" fill="#666" />
<text x="6753.0" y="130" font-size="10px">67000</text>
<rect width="1" height="20" x="6850.0" y="110" fill="#666" />
<text x="6853.0" y="130" font-size="10px">68000</text>
<rect width="1" height="20" x="6950.0" y="110" fill="#666" />
<text x="6953.0" y="130" font-size="10px">69000</text>
<rect width="1" height="20" x="7050.0" y="110" fill="#666" />
<text x="7053.0" y="130" font-size="10px">70000</text>
<rect width="1" height="20" x="7150.0" y="110" fill="#666" />
<text x="7153.0" y="130" font-size="10px">71000</text>
<rect width="1" height="20" x="7250.0" y="110" fill="#666" />
<text x="7253.0" y="130" font-size="10px">72000</text>
<rect width="1" height="20" x="7350.0" y="110" fill="#666" />
<text x="7353.0" y="130" font-size="10px">73000</text>
<rect width="1" height="20" x="7450.0" y="110" fill="#666" />
<text x="7453.0" y="130" font-size="10px">74000</text>
<rect width="1" height="20" x="7550.0" y="110" fill="#666" />
<text x="7553.0" y="130" font-size="10px">75000</text>
<rect width="1" height="20" x="7650.0" y="110" fill="#666" />
<text x="7653.0" y="130" font-size="10px">76000</text>
<rect width="1" height="20" x="7750.0" y="110" fill="#666" />
<text x="7753.0" y="130" font-size="10px">77000</text>
<rect width="1" height="20" x="7850.0" y="110" fill="#666" />
<text x="7853.0" y="130" font-size="10px">78000</text>
<rect width="1" height="20" x="7950.0" y="110" fill="#666" />
<text x="7953.0" y="130" font-size="10px">79000</text>
<rect width="1" height="20" x="8050.0" y="110" fill="#666" />
<text x="8053.0" y="130" font-size="10px">80000</text>
<rect width="1" height="20" x="8150.0" y="110" fill="#666" />
<text x="8153.0" y="130" font-size="10px">81000</text>
<rect width="1" height="20" x="8250.0" y="110" fill="#666" />
<text x="8253.0" y="130" font-size="10px">82000</text>
<rect width="1" height="20" x="8350.0" y="110" fill="#666" />
<text x="8353.0" y="130" font-size="10px">83000</text>
<rect width="1" height="20" x="8450.0" y="110" fill="#666" />
<text x="8453.0" y="130" font-size="10px">84000</text>
<rect width="1" height="20" x="8550.0" y="110" fill="#666" />
<text x="8553.0" y="130" font-size="10px">85000</text>
<rect width="1" height="20" x="8650.0" y="110" fill="#666" />
<text x="8653.0" y="130" font-size="10px">86000</text>
<rect width="1" height="20" x="8750.0" y="110" fill="#666" />
<text x="8753.0" y="130" font-size="10px">87000</text>
<rect width="1" height="20" x="8850.0" y="110" fill="#666" />
<text x="8853.0" y="130" font-size="10px">88000</text>
<rect width="1" height="20" x="8950.0" y="110" fill="#666" />
<text x="8953.0" y="130" font-size="10px">89000</text>
<rect width="1" height="20" x="9050.0" y="110" fill="#666" />
<text x="9053.0" y="130" font-size="10px">90000</text>
<rect width="1" height="20" x="9150.0" y="110" fill="#666" />
<text x="9153.0" y="130" font-size="10px">91000</text>
<rect width="1" height="20" x="9250.0" y="110" fill="#666" />
<text x="9253.0" y="130" font-size="10px">92000</text>
<rect width="1" height="20" x="9350.0" y="110" fill="#666" />
<text x="9353.0" y="130" font-size="10px">93000</text>
<rect width="1" height="20" x="9450.0" y="110" fill="#666" />
<text x="9453.0" y="130" font-size="10px">94000</text>
<rect width="1" height="20" x="9550.0" y="110" fill="#666" />
<text x="9553.0" y="130" font-size="10px">95000</text>
<rect width="1" height="20" x="9650.0" y="110" fill="#666" />
<text x="9653.0" y="130" font-size="10px">96000</text>
<rect width="1" height="20" x="9750.0" y="110" fill="#666" />
<text x="9753.0" y="130" font-size="10px">97000</text>
<rect width="1" height="20" x="9850.0" y="110" fill="#666" />
<text x="9853.0" y="130" font-size="10px">98000</text>
<rect width="1" height="20" x="9950.0" y="110" fill="#666" />
<text x="9953.0" y="130" font-size="10px">99000</text>
<rect width="1" height="20" x="10050.0" y="110" fill="#666" />
<text x="10053.0" y="130" font-size="10px">100000</text>
<rect width="1" height="20" x="10150.0" y="110" fill="#666" />
<text x="10153.0" y="130" font-size="10px">101000</text>
<rect width="1" height="20" x="10250.0" y="110" fill="#666" />
<text x="10253.0" y="130" font-size="10px">102000</text>
<rect width="1" height="20" x="10350.0" y="110" fill="#666" />
<text x="10353.0" y="130" font-size="10px">103000</text>
<rect width="1" height="20" x="10450.0" y="110" fill="#666" />
<text x="10453.0" y="130" font-size="10px">104000</text>
<rect width="1" height="20" x="10550.0" y="110" fill="#666" />
<text x="10553.0" y="130" font-size="10px">105000</text>
<rect width="1" height="20" x="10650.0" y="110" fill="#666" />
<text x="10653.0" y="130" font-size="10px">106000</text>
<rect width="1" height="20" x="10750.0" y="110" fill="#666" />
<text x="10753.0" y="130" font-size="10px">107000</text>
<rect width="1" height="20" x="10850.0" y="110" fill="#666" />
<text x="10853.0" y="130" font-size="10px">108000</text>
<rect width="1" height="20" x="10950.0" y="110" fill="#666" />
<text x="10953.0" y="130" font-size="10px">109000</text>
<rect width="1" height="20" x="11050.0" y="110" fill="#666" />
<text x="11053.0" y="130" font-size="10px">110000</text>
<rect width="1" height="20" x="11150.0" y="110" fill="#666" />
<text x="11153.0" y="130" font-size="10px">111000</text>
<rect width="1" height="20" x="11250.0" y="110" fill="#666" />
<text x="11253.0" y="130" font-size="10px">112000</text>
<rect width="1" height="20" x="11350.0" y="110" fill="#666" />
<text x="11353.0" y="130" font-size="10px">113000</text>
<rect width="1" height="20" x="11450.0" y="110" fill="#666" />
<text x="11453.0" y="130" font-size="10px">114000</text>
<rect width="1" height="20" x="11550.0" y="110" fill="#666" />
<text x="11553.0" y="130" font-size="10px">115000</text>
<rect width="1" height="20" x="11650.0" y="110" fill="#666" />
<text x="11653.0" y="130" font-size="10px">116000</text>
<rect width="1" height="20" x="11750.0" y="110" fill="#666" />
<text x="11753.0" y="130" font-size="10px">117000</text>
<rect width="1" height="20" x="11850.0" y="110" fill="#666" />
<text x="11853.0" y="130" font-size="10px">118000</text>
<rect width="1" height="20" x="11950.0" y="110" fill="#666" />
<text x="11953.0" y="130" font-size="10px">119000</text>
<rect width="1" height="20" x="12050.0" y="110" fill="#666" />
<text x="12053.0" y="130" font-size="10px">120000</text>
<rect width="1" height="20" x="12150.0" y="110" fill="#666" />
<text x="12153.0" y="130" font-size="10px">121000</text>
<rect width="1" height="20" x="12250.0" y="110" fill="#666" />
<text x="12253.0" y="130" font-size="10px">122000</text>
<rect width="1" height="20" x="12350.0" y="110" fill="#666" />
<text x="12353.0" y="130" font-size="10px">123000</text>
<rect width="1" height="20" x="12450.0" y="110" fill="#666" />
<text x="12453.0" y="130" font-size="10px">124000</text>
<rect width="1" height="20" x="12550.0" y="110" fill="#666" />
<text x="12553.0" y="130" font-size="10px">125000</text>
<rect width="1" height="20" x="12650.0" y="110" fill="#666" />
<text x="12653.0" y="130" font-size="10px">126000</text>
<rect width="1" height="20" x="12750.0" y="110" fill="#666" />
<text x="12753.0" y="130" font-size="10px">127000</text>
<rect width="1" height="20" x="12850.0" y="110" fill="#666" />
<text x="12853.0" y="130" font-size="10px">128000</text>
<rect width="1" height="20" x="12950.0" y="110" fill="#666" />
<text x="12953.0" y="130" font-size="10px">129000</text>
<rect width="1" height="20" x="13050.0" y="110" fill="#666" />
<text x="13053.0" y="130" font-size="10px">130000</text>
<rect width="1" height="20" x="13150.0" y="110" fill="#666" />
<text x="13153.0" y="130" font-size="10px">131000</text>
<rect width="1" height="20" x="13250.0" y="110" fill="#666" />
<text x="13253.0" y="130" font-size="10px">132000</text>
<rect width="1" height="20" x="13350.0" y="110" fill="#666" />
<text x="13353.0" y="130" font-size="10px">133000</text>
<rect width="1" height="20" x="13450.0" y="110" fill="#666" />
<text x="13453.0" y="130" font-size="10px">134000</text>
<rect width="1" height="20" x="13550.0" y="110" fill="#666" />
<text x="13553.0" y="130" font-size="10px">135000</text>
<rect width="1" height="20" x="13650.0" y="110" fill="#666" />
<text x="13653.0" y="130" font-size="10px">136000</text>
<rect width="1" height="20" x="13750.0" y="110" fill="#666" />
<text x="13753.0" y="130" font-size="10px">137000</text>
<rect width="1" height="20" x="13850.0" y="110" fill="#666" />
<text x="13853.0" y="130" font-size="10px">138000</text>
<rect width="1" height="20" x="13950.0" y="110" fill="#666" />
<text x="13953.0" y="130" font-size="10px">139000</text>
<rect width="1" height="20" x="14050.0" y="110" fill="#666" />
<text x="14053.0" y="130" font-size="10px">140000</text>
<rect width="1" height="20" x="14150.0" y="110" fill="#666" />
<text x="14153.0" y="130" font-size="10px">141000</text>
<rect width="1" height="20" x="14250.0" y="110" fill="#666" />
<text x="14253.0" y="130" font-size="10px">142000</text>
<rect width="1" height="20" x="14350.0" y="110" fill="#666" />
<text x="14353.0" y="130" font-size="10px">143000</text>
<rect width="1" height="20" x="14450.0" y="110" fill="#666" />
<text x="14453.0" y="130" font-size="10px">144000</text>
<rect width="1" height="20" x="14550.0" y="110" fill="#666" />
<text x="14553.0" y="130" font-size="10px">145000</text>
<rect width="1" height="20" x="14650.0" y="110" fill="#666" />
<text x="14653.0" y="130" font-size="10px">146000</text>
<rect width="1" height="20" x="14750.0" y="110" fill="#666" />
<text x="14753.0" y="130" font-size="10px">147000</text>
<rect width="1" height="20" x="14850.0" y="110" fill="#666" />
<text x="14853.0" y="130" font-size="10px">148000</text>
<rect width="1" height="20" x="14950.0" y="110" fill="#666" />
<text x="14953.0" y="130" font-size="10px">149000</text>
<rect width="1" height="20" x="15050.0" y="110" fill="#666" />
<text x="15053.0" y="130" font-size="10px">150000</text>
<rect width="1" height="20" x="15150.0" y="110" fill="#666" />
<text x="15153.0" y="130" font-size="10px">151000</text>
<rect width="1" height="20" x="15250.0" y="110" fill="#666" />
<text x="15253.0" y="130" font-size="10px">152000</text>
<rect width="1" height="20" x="15350.0" y="110" fill="#666" />
<text x="15353.0" y="130" font-size="10px">153000</text>
<rect width="1" height="20" x="15450.0" y="110" fill="#666" />
<text x="15453.0" y="130" font-size="10px">154000</text>
<rect width="1" height="20" x="15550.0" y="110" fill="#666" />
<text x="15553.0" y="130" font-size="10px">155000</text>
<rect width="1" height="20" x="15650.0" y="110" fill="#666" />
<text x="15653.0" y="130" font-size="10px">156000</text>
<rect width="1" height="20" x="15750.0" y="110" fill="#666" />
<text x="15753.0" y="130" font-size="10px">157000</text>
<rect width="1" height="20" x="15850.0" y="110" fill="#666" />
<text x="15853.0" y="130" font-size="10px">158000</text>
<rect width="1" height="20" x="15950.0" y="110" fill="#666" />
<text x="15953.0" y="130" font-size="10px">159000</text>
<rect width="1" height="20" x="16050.0" y="110" fill="#666" />
<text x="16053.0" y="130" font-size="10px">160000</text>
<rect width="1" height="20" x="16150.0" y="110" fill="#666" />
<text x="16153.0" y="130" font-size="10px">161000</text>
<rect width="1" height="20" x="16250.0" y="110" fill="#666" />
<text x="16253.0" y="130" font-size="10px">162000</text>
<rect width="1" height="20" x="16350.0" y="110" fill="#666" />
<text x="16353.0" y="130" font-size="10px">163000</text>
<rect width="1" height="20" x="16450.0" y="110" fill="#666" />
<text x="16453.0" y="130" font-size="10px">164000</text>
<rect width="1" height="20" x="16550.0" y="110" fill="#666" />
<text x="16553.0" y="130" font-size="10px">165000</text>
<rect width="1" height="20" x="16650.0" y="110" fill="#666" />
<text x="16653.0" y="130" font-size="10px">166000</text>
<rect width="1" height="20" x="16750.0" y="110" fill="#666" />
<text x="16753.0" y="130" font-size="10px">167000</text>
<rect width="1" height="20" x="16850.0" y="110" fill="#666" />
<text x="16853.0" y="130" font-size="10px">168000</text>
<rect width="1" height="20" x="16950.0" y="110" fill="#666" />
<text x="16953.0" y="130" font-size="10px">169000</text>
<rect width="1" height="20" x="17050.0" y="110" fill="#666" />
<text x="17053.0" y="130" font-size="10px">170000</text>
<rect width="1" height="20" x="17150.0" y="110" fill="#666" />
<text x="17153.0" y="130" font-size="10px">171000</text>
<rect width="1" height="20" x="17250.0" y="110" fill="#666" />
<text x="17253.0" y="130" font-size="10px">172000</text>
<rect width="1" height="20" x="17350.0" y="110" fill="#666" />
<text x="17353.0" y="130" font-size="10px">173000</text>
<rect width="1" height="20" x="17450.0" y="110" fill="#666" />
<text x="17453.0" y="130" font-size="10px">174000</text>
<rect width="1" height="20" x="17550.0" y="110" fill="#666" />
<text x="17553.0" y="130" font-size="10px">175000</text>
<rect width="1" height="20" x="17650.0" y="110" fill="#666" />
<text x="17653.0" y="130" font-size="10px">176000</text>
<rect width="1" height="20" x="17750.0" y="110" fill="#666" />
<text x="17753.0" y="130" font-size="10px">177000</text>
<rect width="1" height="20" x="17850.0" y="110" fill="#666" />
<text x="17853.0" y="130" font-size="10px">178000</text>
<rect width="1" height="20" x="17950.0" y="110" fill="#666" />
<text x="17953.0" y="130" font-size="10px">179000</text>
<rect width="1" height="20" x="18050.0" y="110" fill="#666" />
<text x="18053.0" y="130" font-size="10px">180000</text>
<rect width="1" height="20" x="18150.0" y="110" fill="#666" />
<text x="18153.0" y="130" font-size="10px">181000</text>
<rect width="1" height="20" x="18250.0" y="110" fill="#666" />
<text x="18253.0" y="130" font-size="10px">182000</text>
<rect width="1" height="20" x="18350.0" y="110" fill="#666" />
<text x="18353.0" y="130" font-size="10px">183000</text>
<rect width="1" height="20" x="18450.0" y="110" fill="#666" />
<text x="18453.0" y="130" font-size="10px">184000</text>
<rect width="1" height="20" x="18550.0" y="110" fill="#666" />
<text x="18553.0" y="130" font-size="10px">185000</text>
<rect width="1" height="20" x="18650.0" y="110" fill="#666" />
<text x="18653.0" y="130" font-size="10px">186000</text>
<rect width="1" height="20" x="18750.0" y="110" fill="#666" />
<text x="18753.0" y="130" font-size="10px">187000</text>
<rect width="1" height="20" x="18850.0" y="110" fill="#666" />
<text x="18853.0" y="130" font-size="10px">188000</text>
<rect width="1" height="20" x="18950.0" y="110" fill="#666" />
<text x="18953.0" y="130" font-size="10px">189000</text>
<rect width="1" height="20" x="19050.0" y="110" fill="#666" />
<text x="19053.0" y="130" font-size="10px">190000</text>
<rect width="1" height="20" x="19150.0" y="110" fill="#666" />
<text x="19153.0" y="130" font-size="10px">191000</text>
<rect width="1" height="20" x="19250.0" y="110" fill="#666" />
<text x="19253.0" y="130" font-size="10px">192000</text>
<rect width="1" height="20" x="19350.0" y="110" fill="#666" />
<text x="19353.0" y="130" font-size="10px">193000</text>
<rect width="1" height="20" x="19450.0" y="110" fill="#666" />
<text x="19453.0" y="130" font-size="10px">194000</text>
<rect width="1" height="20" x="19550.0" y="110" fill="#666" />
<text x="19553.0" y="130" font-size="10px">195000</text>
<rect width="1" height="20" x="19650.0" y="110" fill="#666" />
<text x="19653.0" y="130" font-size="10px">196000</text>
<rect width="1" height="20" x="19750.0" y="110" fill="#666" />
<text x="19753.0" y="130" font-size="10px">197000</text>
<rect width="1" height="20" x="19850.0" y="110" fill="#666" />
<text x="19853.0" y="130" font-size="10px">198000</text>
<rect width="1" height="20" x="19950.0" y="110" fill="#666" />
<text x="19953.0" y="130" font-size="10px">199000</text>
<rect width="1" height="20" x="20050.0" y="110" fill="#666" />
<text x="20053.0" y="130" font-size="10px">200000</text>
<rect width="1" height="20" x="20150.0" y="110" fill="#666" />
<text x="20153.0" y="130" font-size="10px">201000</text>
<rect width="1" height="20" x="20250.0" y="110" fill="#666" />
<text x="20253.0" y="130" font-size="10px">202000</text>
<rect width="1" height="20" x="20350.0" y="110" fill="#666" />
<text x="20353.0" y="130" font-size="10px">203000</text>
<rect width="1" height="20" x="20450.0" y="110" fill="#666" />
<text x="20453.0" y="130" font-size="10px">204000</text>
<rect width="1" height="20" x="20550.0" y="110" fill="#666" />
<text x="20553.0" y="130" font-size="10px">205000</text>
<rect width="1" height="20" x="20650.0" y="110" fill="#666" />
<text x="20653.0" y="130" font-size="10px">206000</text>
<rect width="1" height="20" x="20750.0" y="110" fill="#666" />
<text x="20753.0" y="130" font-size="10px">207000</text>
<rect width="1" height="20" x="20850.0" y="110" fill="#666" />
<text x="20853.0" y="130" font-size="10px">208000</text>
<rect width="1" height="20" x="20950.0" y="110" fill="#666" />
<text x="20953.0" y="130" font-size="10px">209000</text>
<rect width="1" height="20" x="21050.0" y="110" fill="#666" />
<text x="21053.0" y="130" font-size="10px">210000</text>
<rect width="1" height="20" x="21150.0" y="110" fill="#666" />
<text x="21153.0" y="130" font-size="10px">211000</text>
<rect width="1" height="20" x="21250.0" y="110" fill="#666" />
<text x="21253.0" y="130" font-size="10px">212000</text>
<rect width="1" height="20" x="21350.0" y="110" fill="#666" />
<text x="21353.0" y="130" font-size="10px">213000</text>
<rect width="1" height="20" x="21450.0" y="110" fill="#666" />
<text x="21453.0" y="130" font-size="10px">214000</text>
<rect width="1" height="20" x="21550.0" y="110" fill="#666" />
<text x="21553.0" y="130" font-size="10px">215000</text>
<rect width="1" height="20" x="21650.0" y="110" fill="#666" />
<text x="21653.0" y="130" font-size="10px">216000</text>
<rect width="1" height="20" x="21750.0" y="110" fill="#666" />
<text x="21753.0" y="130" font-size="10px">217000</text>
<rect width="1" height="20" x="21850.0" y="110" fill="#666" />
<text x="21853.0" y="130" font-size="10px">218000</text>
<rect width="1" height="20" x="21950.0" y="110" fill="#666" />
<text x="21953.0" y="130" font-size="10px">219000</text>
<rect width="1" height="20" x="22050.0" y="110" fill="#666" />
<text x="22053.0" y="130" font-size="10px">220000</text>
<rect width="1" height="20" x="22150.0" y="110" fill="#666" />
<text x="22153.0" y="130" font-size="10px">221000</text>
<rect width="1" height="20" x="22250.0" y="110" fill="#666" />
<text x="22253.0" y="130" font-size="10px">222000</text>
<rect width="1" height="20" x="22350.0" y="110" fill="#666" />
<text x="22353.0" y="130" font-size="10px">223000</text>
<rect width="1" height="20" x="22450.0" y="110" fill="#666" />
<text x="22453.0" y="130" font-size="10px">224000</text>
<rect width="1" height="20" x="22550.0" y="110" fill="#666" />
<text x="22553.0" y="130" font-size="10px">225000</text>
<rect width="1" height="20" x="22650.0" y="110" fill="#666" />
<text x="22653.0" y="130" font-size="10px">226000</text>
<rect width="1" height="20" x="22750.0" y="110" fill="#666" />
<text x="22753.0" y="130" font-size="10px">227000</text>
<rect width="1" height="20" x="22850.0" y="110" fill="#666" />
<text x="22853.0" y="130" font-size="10px">228000</text>
<rect width="1" height="20" x="22950.0" y="110" fill="#666" />
<text x="22953.0" y="130" font-size="10px">229000</text>
<rect width="1" height="20" x="23050.0" y="110" fill="#666" />
<text x="23053.0" y="130" font-size="10px">230000</text>
<rect width="1" height="20" x="23150.0" y="110" fill="#666" />
<text x="23153.0" y="130" font-size="10px">231000</text>
<rect width="1" height="20" x="23250.0" y="110" fill="#666" />
<text x="23253.0" y="130" font-size="10px">232000</text>
<rect width="1" height="20" x="23350.0" y="110" fill="#666" />
<text x="23353.0" y="130" font-size="10px">233000</text>
<rect width="1" height="20" x="23450.0" y="110" fill="#666" />
<text x="23453.0" y="130" font-size="10px">234000</text>
<rect width="1" height="20" x="23550.0" y="110" fill="#666" />
<text x="23553.0" y="130" font-size="10px">235000</text>
<rect width="1" height="20" x="23650.0" y="110" fill="#666" />
<text x="23653.0" y="130" font-size="10px">236000</text>
<rect width="1" height="20" x="23750.0" y="110" fill="#666" />
<text x="23753.0" y="130" font-size="10px">237000</text>
<rect width="1" height="20" x="23850.0" y="110" fill="#666" />
<text x="23853.0" y="130" font-size="10px">238000</text>
<rect width="1" height="20" x="23950.0" y="110" fill="#666" />
<text x="23953.0" y="130" font-size="10px">239000</text>
<rect width="1" height="20" x="24050.0" y="110" fill="#666" />
<text x="24053.0" y="130" font-size="10px">240000</text>
<rect width="1" height="20" x="24150.0" y="110" fill="#666" />
<text x="24153.0" y="130" font-size="10px">241000</text>
<rect width="1" height="20" x="24250.0" y="110" fill="#666" />
<text x="24253.0" y="130" font-size="10px">242000</text>
<rect width="1" height="20" x="24350.0" y="110" fill="#666" />
<text x="24353.0" y="130" font-size="10px">243000</text>
<rect width="1" height="20" x="24450.0" y="110" fill="#666" />
<text x="24453.0" y="130" font-size="10px">244000</text>
<rect width="1" height="20" x="24550.0" y="110" fill="#666" />
<text x="24553.0" y="130" font-size="10px">245000</text>
<rect width="1" height="20" x="24650.0" y="110" fill="#666" />
<text x="24653.0" y="130" font-size="10px">246000</text>
<rect width="1" height="20" x="24750.0" y="110" fill="#666" />
<text x="24753.0" y="130" font-size="10px">247000</text>
<rect width="1" height="20" x="24850.0" y="110" fill="#666" />
<text x="24853.0" y="130" font-size="10px">248000</text>
<rect width="1" height="20" x="24950.0" y="110" fill="#666" />
<text x="24953.0" y="130" font-size="10px">249000</text>
<rect width="1" height="20" x="25050.0" y="110" fill="blue" />
<text x="25052.0" y="130" fill="blue" font-size="10px">250000</text>
</svg>
